<svg id="Layer_1" data-name="Layer 1" xmlns="http://www.w3.org/2000/svg" viewBox="0 0 81.36 81.22"><defs><style>.cls-1{fill:#fff;}</style></defs><path class="cls-1" d="M81.36,41.37c0,21.85-18.28,39.82-40.63,39.85A40.61,40.61,0,0,1,40.4,0C63.42,0,81.32,18.06,81.36,41.37ZM67.13,63.92l.34.19c1.31-1.39,2.71-2.69,3.9-4.17,9.68-12,9.34-29.5-.77-41.77C58.22,3.15,35.13,0,18.75,11.1,7.9,18.45.31,31.51,3.82,46.62A31.33,31.33,0,0,0,11.6,61.74c.59.62,1.28,1.13,2.18,1.91V61.89q0-3.82-.08-7.66c0-1.93.65-2.73,2.49-3.26,2.07-.59,4.13-1.24,6.18-1.89a2.71,2.71,0,0,0,2-2.77c0-1.68,0-3.35,0-5,0-2.28.37-2.81,2.6-3.46L36.79,35C38.66,34.43,39,34,39,32.11c0-4.31-.13-8.62,0-12.93.07-2.05-.13-3.84-1.7-5.28,0,0,0-.15,0-.27l3.56-4.55,3.63,4.67a13.94,13.94,0,0,1-1.22,1.58A4.51,4.51,0,0,0,42,18.9c.08,4.38,0,8.77,0,13.16,0,2,.24,2.32,2.14,2.86q5.19,1.45,10.36,2.94c2.1.6,2.61,1.32,2.6,3.53s0,4.23,0,6.34c0,.86.3,1.16,1.07,1.36,2.16.58,4.29,1.23,6.44,1.84s2.61,1.09,2.6,3.44C67.12,57.55,67.13,60.74,67.13,63.92Zm-13,9.55a3.09,3.09,0,0,0,.06-.43q0-15.92,0-31.84a2.37,2.37,0,0,0-1.68-2.36C50.23,38,48,37.15,45.73,36.33a13.49,13.49,0,0,0-9.94.05c-2,.78-3.93,1.56-5.93,2.25s-2.28,1-2.26,3.17c0,3.71,0,7.42,0,11.13,0,6.54,0,13.08,0,19.63,0,.36.2.93.46,1a19.6,19.6,0,0,0,2.69.76V72.67c0-9.89,0-19.79.11-29.68a7.1,7.1,0,0,1,.73-2.58,1.22,1.22,0,0,1,1-.56,1.41,1.41,0,0,1,.91.9,12,12,0,0,1,.21,2.61q0,13.89,0,27.77c0,3.8.17,4,3.89,4.62,1.35.23,1.43.18,1.43-1.23V50.94c0-3.79,0-7.58,0-11.37,0-1.57.73-2.6,1.63-2.54s1.45,1.09,1.45,2.55q0,17.54,0,35.07v1.23l5.41-.53c0-.32.06-.56.06-.79,0-10.49,0-21,0-31.48,0-1.46.59-2.38,1.82-3.56.51,1.15,1.3,2.11,1.31,3.09.08,10.25,0,20.51,0,30.76,0,.34,0,.68.07,1.13Zm-29.69-1V51.05c-2.14.67-4.19,1.28-6.23,2A1.76,1.76,0,0,0,17,54.87c0,3.83,0,7.66.07,11.49a2.07,2.07,0,0,0,.63,1.45C19.82,69.37,22.05,70.84,24.43,72.46Zm33-21.38v21.3c2-1.36,4-2.56,5.78-3.91a3,3,0,0,0,1.12-1.92c.09-3.86.07-7.72,0-11.58a2.31,2.31,0,0,0-1-1.75C61.49,52.4,59.52,51.8,57.47,51.08Z"/></svg>